<svg width="309" height="204" viewBox="0 0 309 204" fill="none" xmlns="http://www.w3.org/2000/svg">
<g clip-path="url(#clip0_6_544)">
<mask id="mask0_6_544" style="mask-type:alpha" maskUnits="userSpaceOnUse" x="0" y="21" width="309" height="159">
<rect y="21.741" width="308.66" height="158.174" fill="url(#paint0_linear_6_544)"/>
</mask>
<g mask="url(#mask0_6_544)">
<path d="M269.974 42.5148L252.528 35.6554L180.68 35.9201L168.242 30.6613L157.719 35.8066L112.751 35.6617L94.9323 26.0452H69.0242L65.0167 35.6585H42.436L0 115.199L47.2386 177.958H261.523L308.762 115.199L269.972 42.5117L269.974 42.5148ZM260.433 175.113H48.3282L3.01432 114.909L43.7772 38.5038H66.5292L70.534 28.8905H94.4049L112.218 38.5038L158.198 38.6519L168.304 33.7081L180.259 38.7653L252.137 38.5006L268.384 44.8874L305.747 114.903L260.433 175.107V175.113Z" fill="url(#paint1_linear_6_544)"/>
</g>
<path d="M305.75 114.909L260.433 175.11H48.3281L3.01425 114.909L43.7772 38.5035H66.5291L70.5339 28.8902H94.4049L112.22 38.5035L158.198 38.6547L168.304 33.711L180.259 38.7682L252.137 38.5035L268.384 44.8935L305.75 114.909Z" fill="url(#paint2_linear_6_544)"/>
<path d="M305.744 114.909L268.386 44.8934L252.134 38.5066L180.261 38.765L168.306 33.7078L158.195 38.6516L112.217 38.5066L94.4042 28.8933H70.536L66.5312 38.5066H43.7819L3.0163 114.909H30.2763L50.8224 132.885H84.0977L89.0797 114.909H110.664L115.625 89.4751H120.548L127.198 86.0659L125.803 103.326L144.189 114.909H305.744Z" fill="#4A357D"/>
<path d="M17.4514 105.516H40.6745L44.666 96.5048H34.3675L41.6543 81.4689L53.5938 76.3518L57.3657 67.8445L46.0018 72.4983L52.0492 60.0177L48.4861 53.6813H55.1224H63.6406L66.2025 47.8995H48.1943L17.4514 105.516Z" fill="white"/>
<path d="M75.5132 38.2827L62.0318 70.6611L78.3776 82.0798L84.7918 85.9806L75.0849 92.1847L68.2344 113.198H57.2399L68.9974 81.207L60.2141 75.025L43.6086 114.899L53.4573 123.492H78.308L90.6196 79.0518L73.7946 68.153L82.8509 43.5132H90.9462L96.4555 46.2387L88.6627 50.5207L83.3435 66.8454L92.4105 72.5799L100.699 42.6624L92.6515 38.2827H75.5132Z" fill="white"/>
<path d="M105.82 47.8989L91.76 105.516H104.307L109.27 80.0819H118.886L130.831 73.9598L133.045 52.8048L123.825 47.8989H105.817H105.82ZM121.943 60.1842L120.016 72.7404H110.705L114.424 53.6776H122.942L129.227 56.6867L121.943 60.181V60.1842Z" fill="white"/>
<path d="M138.297 47.8989L134.25 97.9946L146.189 105.516H169.412L166.326 52.8048L156.308 47.8989H138.3H138.297ZM156.477 65.6257L156.777 96.5011H146.478L147.846 53.6776H156.365L162.91 56.6867L156.48 65.6257H156.477Z" fill="white"/>
<path d="M173.192 52.8269L178.051 105.516H190.598L187.008 80.0819H196.624L201.271 105.516H213.821L208.192 81.2068L200.806 77.5266L206.513 73.9598L200.476 47.8989H182.468L173.192 52.8269V52.8269ZM195.286 72.7404H185.975L184.213 60.2503L176.948 56.6899L183.285 53.6808H191.803L195.286 72.7435V72.7404Z" fill="white"/>
<path d="M205.132 53.6808H213.519L228.486 105.516H241.036L225.648 59.9416L216.86 53.6115H231.765L229.607 47.8989H203.699L205.132 53.6808Z" fill="white"/>
<path d="M273.738 72.5797L263.15 52.7387L250.836 47.8989H232.828L241.801 70.6608L267.402 82.0796L274.394 96.5043H264.093L257.317 81.2068L243.52 75.0248L252.574 97.9946L268.087 105.516H291.31L277.189 79.0516L251.532 68.1527L247.937 60.0361L238.49 53.6808H253.639L260.018 66.8451L273.738 72.5797Z" fill="white"/>
<path d="M168.726 40.9952C167.412 42.5044 165.923 43.9034 164.288 45.1732C166.076 46.4556 167.776 47.9176 169.363 49.534C170.71 47.9176 172.193 46.4556 173.788 45.1732C171.963 43.9034 170.265 42.5044 168.726 40.9952Z" fill="#E2D45C"/>
<path d="M31.6026 98.3949L39.1384 82.8422C36.3435 83.2172 33.5728 83.6016 30.8262 84.0017L20.3564 103.625H39.7005L42.0161 98.3949H31.6026V98.3949Z" fill="url(#paint3_linear_6_544)"/>
<path d="M85.6328 77.98C82.6399 78.2101 79.6657 78.4558 76.7103 78.7173L79.1571 80.4251L87.1962 85.3121L88.6793 79.9525L85.6328 77.98V77.98ZM76.3703 93.5107L69.3405 115.088H54.7963L66.966 81.9785L64.0373 79.9178C62.6131 80.0628 61.1917 80.2109 59.7782 80.3652L45.6409 114.316L53.9878 121.601H77.1413L86.7625 86.8718L76.3703 93.5107V93.5107Z" fill="url(#paint4_linear_6_544)"/>
<path d="M123.179 75.8218L118.555 78.1912H107.994L103.031 103.625H93.8947L100.402 76.9529C107.893 76.4898 115.487 76.1117 123.179 75.8218Z" fill="url(#paint5_linear_6_544)"/>
<path d="M167.691 103.625H146.593L135.95 96.9234L137.692 75.3746C140.302 75.3116 142.921 75.2612 145.549 75.2202L144.811 98.3949H158.402L158.177 75.0974C159.379 75.0942 160.584 75.0911 161.791 75.0911C163.204 75.0911 164.615 75.0942 166.021 75.1005L167.691 103.625V103.625Z" fill="url(#paint6_linear_6_544)"/>
<path d="M211.72 103.625H202.57L197.923 78.1913H185.113L188.703 103.625H179.492L176.871 75.2011C184.709 75.3145 192.464 75.5194 200.126 75.8092L197.071 77.7187L206.848 82.5899L211.72 103.625V103.625Z" fill="url(#paint7_linear_6_544)"/>
<path d="M229.809 77.3845C227.191 77.2049 224.56 77.0348 221.915 76.8773L229.638 103.625H238.67L229.809 77.3845Z" fill="url(#paint8_linear_6_544)"/>
<path d="M276.794 81.8624C274.109 81.5316 271.405 81.2102 268.68 80.9014L277.16 98.3951H263.119L256.175 82.7195L247.333 78.7557C247.135 78.7368 246.94 78.721 246.742 78.7053L253.769 96.5297L268.404 103.626H288.407L276.794 81.8624V81.8624Z" fill="url(#paint9_linear_6_544)"/>
<path fill-rule="evenodd" clip-rule="evenodd" d="M127.956 147.915V144.026L118.831 148.022H118.812V152.011H118.831L127.956 156.006V152.112L123.28 150.007L127.956 147.915V147.915Z" fill="#996DFF"/>
<path fill-rule="evenodd" clip-rule="evenodd" d="M180.817 155.804V151.916L185.491 149.824L180.817 147.732V143.844L189.93 147.836H189.951V151.828H189.93L180.817 155.801V155.804ZM176.903 138.352L171.544 158.599H174.727L180.086 138.352H176.903Z" fill="#996DFF"/>
<path fill-rule="evenodd" clip-rule="evenodd" d="M141.366 143.292C142.271 144.464 142.747 146.008 142.691 147.59V156.214H139.508V148.381C139.546 147.508 139.307 146.651 138.844 145.97C138.403 145.365 137.749 145.031 137.072 145.066C135.08 145.066 134.082 146.692 134.082 149.947V156.217H130.899V142.057H134.082V143.336C135.091 142.18 136.462 141.565 137.87 141.635C139.182 141.569 140.456 142.174 141.363 143.292H141.366Z" fill="white"/>
<path fill-rule="evenodd" clip-rule="evenodd" d="M146.741 136.168V156.416H149.924V136.168H146.741Z" fill="white"/>
<path fill-rule="evenodd" clip-rule="evenodd" d="M167.908 155.675H165.253L162.65 147.335L160.024 155.675H157.374L152.914 141.49H156.314L158.82 149.972L161.403 141.49H163.885L166.468 150L168.974 141.49H172.373L167.908 155.675V155.675Z" fill="white"/>
<path d="M12.9759 33.0591C16.5791 22.8157 23.8553 14.7431 34.5955 9.06841C44.8859 3.63 57.9256 0.605166 73.3479 0.0821218C104.963 -0.992325 143.13 8.52961 180.809 26.9023C183.518 28.2225 186.203 29.5774 188.858 30.967L185.103 30.9796C183.491 30.1572 181.866 29.3474 180.228 28.5502C103.031 -9.08376 28.6284 -6.75527 14.376 33.7429C10.248 45.4704 11.6106 59.1294 17.5054 73.5352C31.9586 108.882 73.6852 148.712 128.532 175.45C133.838 178.037 139.149 180.444 144.452 182.672C176.627 196.195 208.406 203.049 235.369 202.132C250.593 201.615 263.435 198.644 273.543 193.303C283.922 187.82 290.933 180.066 294.384 170.257C297.497 161.407 297.486 151.456 294.758 140.913L295.923 139.366C299.119 150.987 299.077 161.596 295.786 170.941C292.181 181.185 284.907 189.257 274.164 194.932C263.874 200.37 250.837 203.395 235.414 203.918C233.803 203.972 232.175 204 230.532 204C203.352 204 171.782 196.542 140.019 182.672C135.995 180.917 131.972 179.058 127.951 177.098C90.272 158.728 57.5642 133.701 35.8537 106.626C27.3166 95.9789 20.849 85.4739 16.5631 75.2997C15.5298 72.8515 14.6249 70.4253 13.8486 68.0212C9.66441 55.068 9.36994 43.3058 12.9759 33.0591V33.0591Z" fill="url(#paint10_linear_6_544)"/>
<path d="M12.9759 33.0591C16.5791 22.8157 23.8553 14.7431 34.5955 9.06841C44.8859 3.63 57.9256 0.605166 73.3479 0.0821218C104.963 -0.992325 143.13 8.52961 180.809 26.9023C183.518 28.2225 186.203 29.5774 188.858 30.967L185.103 30.9796C183.491 30.1572 181.866 29.3474 180.228 28.5502C103.031 -9.08376 28.6284 -6.75527 14.376 33.7429C10.248 45.4704 11.6106 59.1294 17.5054 73.5352C31.9586 108.882 73.6852 148.712 128.532 175.45C133.838 178.037 139.149 180.444 144.452 182.672C176.627 196.195 208.406 203.049 235.369 202.132C250.593 201.615 263.435 198.644 273.543 193.303C283.922 187.82 290.933 180.066 294.384 170.257C297.497 161.407 297.486 151.456 294.758 140.913L295.923 139.366C299.119 150.987 299.077 161.596 295.786 170.941C292.181 181.185 284.907 189.257 274.164 194.932C263.874 200.37 250.837 203.395 235.414 203.918C233.803 203.972 232.175 204 230.532 204C203.352 204 171.782 196.542 140.019 182.672C135.995 180.917 131.972 179.058 127.951 177.098C90.272 158.728 57.5642 133.701 35.8537 106.626C27.3166 95.9789 20.849 85.4739 16.5631 75.2997C15.5298 72.8515 14.6249 70.4253 13.8486 68.0212C9.66441 55.068 9.36994 43.3058 12.9759 33.0591V33.0591Z" fill="url(#paint11_radial_6_544)"/>
<path d="M12.9759 33.0591C16.5791 22.8157 23.8553 14.7431 34.5955 9.06841C44.8859 3.63 57.9256 0.605166 73.3479 0.0821218C104.963 -0.992325 143.13 8.52961 180.809 26.9023C183.518 28.2225 186.203 29.5774 188.858 30.967L185.103 30.9796C183.491 30.1572 181.866 29.3474 180.228 28.5502C103.031 -9.08376 28.6284 -6.75527 14.376 33.7429C10.248 45.4704 11.6106 59.1294 17.5054 73.5352C31.9586 108.882 73.6852 148.712 128.532 175.45C133.838 178.037 139.149 180.444 144.452 182.672C176.627 196.195 208.406 203.049 235.369 202.132C250.593 201.615 263.435 198.644 273.543 193.303C283.922 187.82 290.933 180.066 294.384 170.257C297.497 161.407 297.486 151.456 294.758 140.913L295.923 139.366C299.119 150.987 299.077 161.596 295.786 170.941C292.181 181.185 284.907 189.257 274.164 194.932C263.874 200.37 250.837 203.395 235.414 203.918C233.803 203.972 232.175 204 230.532 204C203.352 204 171.782 196.542 140.019 182.672C135.995 180.917 131.972 179.058 127.951 177.098C90.272 158.728 57.5642 133.701 35.8537 106.626C27.3166 95.9789 20.849 85.4739 16.5631 75.2997C15.5298 72.8515 14.6249 70.4253 13.8486 68.0212C9.66441 55.068 9.36994 43.3058 12.9759 33.0591V33.0591Z" fill="url(#paint12_radial_6_544)"/>
<path d="M12.9759 33.0591C16.5791 22.8157 23.8553 14.7431 34.5955 9.06841C44.8859 3.63 57.9256 0.605166 73.3479 0.0821218C104.963 -0.992325 143.13 8.52961 180.809 26.9023C183.518 28.2225 186.203 29.5774 188.858 30.967L185.103 30.9796C183.491 30.1572 181.866 29.3474 180.228 28.5502C103.031 -9.08376 28.6284 -6.75527 14.376 33.7429C10.248 45.4704 11.6106 59.1294 17.5054 73.5352C31.9586 108.882 73.6852 148.712 128.532 175.45C133.838 178.037 139.149 180.444 144.452 182.672C176.627 196.195 208.406 203.049 235.369 202.132C250.593 201.615 263.435 198.644 273.543 193.303C283.922 187.82 290.933 180.066 294.384 170.257C297.497 161.407 297.486 151.456 294.758 140.913L295.923 139.366C299.119 150.987 299.077 161.596 295.786 170.941C292.181 181.185 284.907 189.257 274.164 194.932C263.874 200.37 250.837 203.395 235.414 203.918C233.803 203.972 232.175 204 230.532 204C203.352 204 171.782 196.542 140.019 182.672C135.995 180.917 131.972 179.058 127.951 177.098C90.272 158.728 57.5642 133.701 35.8537 106.626C27.3166 95.9789 20.849 85.4739 16.5631 75.2997C15.5298 72.8515 14.6249 70.4253 13.8486 68.0212C9.66441 55.068 9.36994 43.3058 12.9759 33.0591V33.0591Z" fill="url(#paint13_radial_6_544)"/>
<path d="M295.786 33.0591C292.183 22.8157 284.907 14.7431 274.167 9.06841C263.876 3.63 250.837 0.605166 235.414 0.0821218C203.799 -0.992325 165.632 8.52961 127.953 26.9023C125.244 28.2225 122.559 29.5774 119.904 30.967L123.66 30.9796C125.271 30.1572 126.896 29.3474 128.534 28.5502C205.731 -9.08376 280.134 -6.75527 294.386 33.7429C298.514 45.4704 297.152 59.1294 291.257 73.5352C276.804 108.882 235.077 148.712 180.23 175.45C174.924 178.037 169.613 180.444 164.31 182.672C132.135 196.195 100.356 203.049 73.3932 202.132C58.169 201.615 45.3274 198.644 35.219 193.303C24.8402 187.82 17.8291 180.066 14.3784 170.257C11.2651 161.407 11.2758 151.456 14.0037 140.913L12.8392 139.366C9.6428 150.987 9.68563 161.596 12.9757 170.941C16.5816 181.185 23.8551 189.257 34.5979 194.932C44.8884 200.37 57.9254 203.395 73.3477 203.918C74.9593 203.972 76.5869 204 78.2306 204C105.41 204 136.98 196.542 168.743 182.672C172.767 180.917 176.79 179.058 180.811 177.098C218.49 158.728 251.198 133.701 272.908 106.626C281.445 95.9789 287.913 85.4739 292.199 75.2997C293.232 72.8515 294.137 70.4253 294.914 68.0212C299.098 55.068 299.392 43.3058 295.786 33.0591V33.0591Z" fill="url(#paint14_linear_6_544)"/>
<path d="M295.786 33.0591C292.183 22.8157 284.907 14.7431 274.167 9.06841C263.876 3.63 250.837 0.605166 235.414 0.0821218C203.799 -0.992325 165.632 8.52961 127.953 26.9023C125.244 28.2225 122.559 29.5774 119.904 30.967L123.66 30.9796C125.271 30.1572 126.896 29.3474 128.534 28.5502C205.731 -9.08376 280.134 -6.75527 294.386 33.7429C298.514 45.4704 297.152 59.1294 291.257 73.5352C276.804 108.882 235.077 148.712 180.23 175.45C174.924 178.037 169.613 180.444 164.31 182.672C132.135 196.195 100.356 203.049 73.3932 202.132C58.169 201.615 45.3274 198.644 35.219 193.303C24.8402 187.82 17.8291 180.066 14.3784 170.257C11.2651 161.407 11.2758 151.456 14.0037 140.913L12.8392 139.366C9.6428 150.987 9.68563 161.596 12.9757 170.941C16.5816 181.185 23.8551 189.257 34.5979 194.932C44.8884 200.37 57.9254 203.395 73.3477 203.918C74.9593 203.972 76.5869 204 78.2306 204C105.41 204 136.98 196.542 168.743 182.672C172.767 180.917 176.79 179.058 180.811 177.098C218.49 158.728 251.198 133.701 272.908 106.626C281.445 95.9789 287.913 85.4739 292.199 75.2997C293.232 72.8515 294.137 70.4253 294.914 68.0212C299.098 55.068 299.392 43.3058 295.786 33.0591V33.0591Z" fill="url(#paint15_radial_6_544)"/>
<path d="M295.786 33.0591C292.183 22.8157 284.907 14.7431 274.167 9.06841C263.876 3.63 250.837 0.605166 235.414 0.0821218C203.799 -0.992325 165.632 8.52961 127.953 26.9023C125.244 28.2225 122.559 29.5774 119.904 30.967L123.66 30.9796C125.271 30.1572 126.896 29.3474 128.534 28.5502C205.731 -9.08376 280.134 -6.75527 294.386 33.7429C298.514 45.4704 297.152 59.1294 291.257 73.5352C276.804 108.882 235.077 148.712 180.23 175.45C174.924 178.037 169.613 180.444 164.31 182.672C132.135 196.195 100.356 203.049 73.3932 202.132C58.169 201.615 45.3274 198.644 35.219 193.303C24.8402 187.82 17.8291 180.066 14.3784 170.257C11.2651 161.407 11.2758 151.456 14.0037 140.913L12.8392 139.366C9.6428 150.987 9.68563 161.596 12.9757 170.941C16.5816 181.185 23.8551 189.257 34.5979 194.932C44.8884 200.37 57.9254 203.395 73.3477 203.918C74.9593 203.972 76.5869 204 78.2306 204C105.41 204 136.98 196.542 168.743 182.672C172.767 180.917 176.79 179.058 180.811 177.098C218.49 158.728 251.198 133.701 272.908 106.626C281.445 95.9789 287.913 85.4739 292.199 75.2997C293.232 72.8515 294.137 70.4253 294.914 68.0212C299.098 55.068 299.392 43.3058 295.786 33.0591V33.0591Z" fill="url(#paint16_radial_6_544)"/>
</g>
<defs>
<linearGradient id="paint0_linear_6_544" x1="154.33" y1="95.3138" x2="154.33" y2="172.825" gradientUnits="userSpaceOnUse">
<stop stop-color="#D9D9D9"/>
<stop offset="1" stop-color="#D9D9D9" stop-opacity="0"/>
</linearGradient>
<linearGradient id="paint1_linear_6_544" x1="0" y1="102" x2="308.764" y2="102" gradientUnits="userSpaceOnUse">
<stop stop-color="#996DFF"/>
<stop offset="0.5" stop-color="#35E8B3"/>
<stop offset="1" stop-color="#E2D45C"/>
</linearGradient>
<linearGradient id="paint2_linear_6_544" x1="154.381" y1="117.187" x2="154.381" y2="173.613" gradientUnits="userSpaceOnUse">
<stop stop-color="#28203E"/>
<stop offset="1" stop-color="#121214" stop-opacity="0"/>
</linearGradient>
<linearGradient id="paint3_linear_6_544" x1="31.1876" y1="77.7945" x2="31.1876" y2="100.03" gradientUnits="userSpaceOnUse">
<stop stop-color="#A9A9AD"/>
<stop offset="1" stop-color="#A9A9AD" stop-opacity="0"/>
</linearGradient>
<linearGradient id="paint4_linear_6_544" x1="67.1614" y1="77.7941" x2="67.1614" y2="100.03" gradientUnits="userSpaceOnUse">
<stop stop-color="#A9A9AD"/>
<stop offset="1" stop-color="#A9A9AD" stop-opacity="0"/>
</linearGradient>
<linearGradient id="paint5_linear_6_544" x1="108.538" y1="77.7942" x2="108.538" y2="100.03" gradientUnits="userSpaceOnUse">
<stop stop-color="#A9A9AD"/>
<stop offset="1" stop-color="#A9A9AD" stop-opacity="0"/>
</linearGradient>
<linearGradient id="paint6_linear_6_544" x1="151.822" y1="77.7945" x2="151.822" y2="100.03" gradientUnits="userSpaceOnUse">
<stop stop-color="#A9A9AD"/>
<stop offset="1" stop-color="#A9A9AD" stop-opacity="0"/>
</linearGradient>
<linearGradient id="paint7_linear_6_544" x1="194.295" y1="77.7943" x2="194.295" y2="100.03" gradientUnits="userSpaceOnUse">
<stop stop-color="#A9A9AD"/>
<stop offset="1" stop-color="#A9A9AD" stop-opacity="0"/>
</linearGradient>
<linearGradient id="paint8_linear_6_544" x1="230.294" y1="77.7942" x2="230.294" y2="100.03" gradientUnits="userSpaceOnUse">
<stop stop-color="#A9A9AD"/>
<stop offset="1" stop-color="#A9A9AD" stop-opacity="0"/>
</linearGradient>
<linearGradient id="paint9_linear_6_544" x1="267.574" y1="77.7947" x2="267.574" y2="100.03" gradientUnits="userSpaceOnUse">
<stop stop-color="#A9A9AD"/>
<stop offset="1" stop-color="#A9A9AD" stop-opacity="0"/>
</linearGradient>
<linearGradient id="paint10_linear_6_544" x1="280.15" y1="146.043" x2="71.6089" y2="146.953" gradientUnits="userSpaceOnUse">
<stop stop-color="#996DFF"/>
<stop offset="0.5" stop-color="#35E8B3"/>
<stop offset="1" stop-color="#E2D45C"/>
</linearGradient>
<radialGradient id="paint11_radial_6_544" cx="0" cy="0" r="1" gradientUnits="userSpaceOnUse" gradientTransform="translate(152.477 186.421) rotate(18.3763) scale(142.164 270.18)">
<stop stop-color="#171226"/>
<stop offset="1" stop-color="#171226" stop-opacity="0"/>
</radialGradient>
<radialGradient id="paint12_radial_6_544" cx="0" cy="0" r="1" gradientUnits="userSpaceOnUse" gradientTransform="translate(188.421 31.8752) rotate(-153.493) scale(32.4635 59.9349)">
<stop stop-color="#261945"/>
<stop offset="1" stop-color="#261945" stop-opacity="0"/>
</radialGradient>
<radialGradient id="paint13_radial_6_544" cx="0" cy="0" r="1" gradientUnits="userSpaceOnUse" gradientTransform="translate(296.254 136.773) rotate(78.6691) scale(41.7687 59.8058)">
<stop stop-color="#191326"/>
<stop offset="1" stop-color="#191326" stop-opacity="0"/>
</radialGradient>
<linearGradient id="paint14_linear_6_544" x1="162.324" y1="22.6025" x2="223.714" y2="154.833" gradientUnits="userSpaceOnUse">
<stop stop-color="#996DFF"/>
<stop offset="0.5" stop-color="#35E8B3"/>
<stop offset="1" stop-color="#E2D45C"/>
</linearGradient>
<radialGradient id="paint15_radial_6_544" cx="0" cy="0" r="1" gradientUnits="userSpaceOnUse" gradientTransform="translate(117.024 34.9661) rotate(-22.4596) scale(72.8163 136.543)">
<stop stop-color="#171225"/>
<stop offset="1" stop-color="#171225" stop-opacity="0"/>
</radialGradient>
<radialGradient id="paint16_radial_6_544" cx="0" cy="0" r="1" gradientUnits="userSpaceOnUse" gradientTransform="translate(12.9663 138.705) rotate(70.5859) scale(55.3036 81.3469)">
<stop stop-color="#191327"/>
<stop offset="1" stop-color="#191327" stop-opacity="0"/>
</radialGradient>
<clipPath id="clip0_6_544">
<rect width="308.764" height="204" fill="white"/>
</clipPath>
</defs>
</svg>
